<svg width="64" height="64" viewBox="0 0 64 64" fill="none" xmlns="http://www.w3.org/2000/svg">
  <!-- White circle background -->
  <circle cx="32" cy="32" r="32" fill="white"/>
  
  <!-- Red V (underneath, filled for better visibility) -->
  <path d="M 30 12 L 40 52 L 50 12 L 44 12 L 40 38 L 36 12 Z" 
        fill="#DC2626"/>
  
  <!-- Black S (on top, overlapping, filled and bold) -->
  <path d="M 28 14 C 20 14 14 18 14 25 C 14 31 18 34 24 36 C 28 37 30 39 30 42 C 30 45 27 48 22 48 C 17 48 14 45 13 41 L 8 43 C 10 49 15 52 22 52 C 30 52 35 48 35 42 C 35 36 31 33 25 31 C 21 30 19 28 19 25 C 19 21 22 18 28 18 C 32 18 35 20 36 23 L 41 21 C 39 16 34 14 28 14 Z" 
        fill="black"/>
</svg>
